<?xml version="1.0" encoding="UTF-8" standalone="no"?>
<!-- Created with Inkscape (http://www.inkscape.org/) -->
<svg
   xmlns:svg="http://www.w3.org/2000/svg"
   xmlns="http://www.w3.org/2000/svg"
   xmlns:xlink="http://www.w3.org/1999/xlink"
   version="1.0"
   width="546.14001"
   height="280.26999"
   id="svg2452">
  <defs
     id="defs2454" />
  <g
     transform="translate(72.503533,-47.730669)"
     id="g2486">
    <path
       d="M 241.52104,64.536468 C 241.52104,64.536468 236.21521,64.536468 236.21521,64.536468 C 236.21521,70.728558 233.90051,75.754018 230.36663,75.754018 C 226.83274,75.754018 223.92614,70.728558 223.92614,64.536468 C 223.92614,60.897068 224.98649,55.50878 226.61296,55.50044 C 228.23943,55.49215 229.30713,60.828248 229.30713,64.536468 C 229.30713,70.728558 225.80861,75.754018 222.27472,75.754018 C 218.74083,75.754018 215.24231,70.728558 215.24231,64.536468 C 215.24231,60.897068 216.30266,55.50878 217.92913,55.50044 C 219.5556,55.49215 220.6233,60.828248 220.6233,64.536468 C 220.6233,70.728558 217.12478,75.754018 213.59089,75.754018 C 210.057,75.754018 206.55849,70.728558 206.55849,64.536468 C 206.55849,60.897068 207.61884,55.50878 209.24531,55.50044 C 210.87178,55.49215 211.93948,60.828248 211.93948,64.536468 C 211.93948,70.728558 208.44095,75.754018 204.90706,75.754018 C 201.37317,75.754018 197.87466,70.728558 197.87466,64.536468 C 197.87466,60.897068 198.93501,55.50878 200.56148,55.50044 C 202.18795,55.49215 203.25565,60.828248 203.25565,64.536468 C 203.25565,70.728558 199.75713,75.754018 196.22324,75.754018 C 192.68935,75.754018 189.19083,70.728558 189.19083,64.536468 C 189.19083,60.897068 190.25118,55.50878 191.87765,55.50044 C 193.50412,55.49215 194.57182,60.828248 194.57182,64.536468 C 194.57182,70.728558 191.0733,75.754018 187.53941,75.754018 C 184.00553,75.754018 180.50702,70.728558 180.50702,64.536468 C 180.50702,60.897068 181.56737,55.50878 183.19384,55.50044 C 184.82031,55.49215 185.88801,60.828248 185.88801,64.536468 C 185.88801,70.728558 182.38948,75.754018 178.85558,75.754018 C 175.32169,75.754018 171.82318,70.728558 171.82318,64.536468 C 171.82318,60.897068 172.88353,55.50878 174.51,55.50044 C 176.13647,55.49215 177.20417,60.828248 177.20417,64.536468 C 177.20417,70.728558 174.29756,75.754018 170.76367,75.754018 C 167.22978,75.754018 164.91509,70.728558 164.91509,64.536468 C 164.91509,64.536468 159.60191,64.536468 159.60191,64.536468"
       id="path2452"
       style="fill:none;stroke:#000000;stroke-width:1.5;stroke-linecap:butt" />
    <g
       transform="matrix(1.5,0,0,-1.5,-98.672256,1118.2301)"
       id="g2664"
       xml:space="preserve"
       style="font-style:normal;font-variant:normal;font-weight:normal;font-stretch:normal;letter-spacing:normal;word-spacing:normal;text-anchor:start;fill:none;fill-opacity:1;fill-rule:evenodd;stroke:#000000;stroke-linecap:butt;stroke-linejoin:miter;stroke-miterlimit:10.43299961;stroke-dasharray:none;stroke-dashoffset:0;stroke-opacity:1"><polygon
         points="228.46,712.69 228.46,713 224.86,713 224.86,712.69 228.46,712.69 "
         id="polygon2666"
         style="fill:#000000;stroke-width:0" /><path
         d="M 227.94,711.42 L 227.94,711.42 L 227.94,711.42 L 227.94,711.43 L 227.93,711.43 L 227.93,711.44 L 227.93,711.44 L 227.93,711.44 L 227.93,711.45 L 227.93,711.45 L 227.93,711.46 L 227.92,711.46 L 227.92,711.47 L 227.92,711.47 L 227.92,711.47 L 227.92,711.48 L 227.91,711.48 L 227.91,711.48 L 227.91,711.49 L 227.9,711.49 L 227.9,711.49 L 227.89,711.5 L 227.89,711.5 L 227.89,711.5 L 227.88,711.51 L 227.88,711.51 L 227.87,711.51 L 227.87,711.51 L 227.86,711.51 L 227.85,711.51 L 227.85,711.52 L 227.84,711.52 L 227.84,711.52 C 227.73,711.52 227.33,711.12 227.16,710.83 C 226.94,711.37 226.55,711.53 226.23,711.53 L 226.23,711.31 C 226.88,711.31 227.02,710.5 227.02,710.43 C 227.02,710.37 226.47,708.19 226.44,708.15 C 226.29,707.87 225.73,707.23 225.18,707.23 L 225.18,707.23 C 224.58,707.23 224.54,708 224.54,708.17 C 224.54,708.65 224.83,709.73 225,710.15 C 225.3,710.89 225.82,711.31 226.23,711.31 L 226.23,711.53 C 225.06,711.53 223.83,710.05 223.83,708.61 C 223.83,707.63 224.42,707.01 225.15,707.01 C 225.57,707.01 225.96,707.25 226.32,707.61 C 226.23,707.26 225.9,705.92 225.87,705.83 C 225.79,705.55 225.71,705.51 225.16,705.5 C 225.03,705.5 224.93,705.5 224.93,705.3 C 224.93,705.29 224.93,705.19 225.06,705.19 C 225.38,705.19 225.72,705.22 226.05,705.22 C 226.39,705.22 226.75,705.19 227.08,705.19 C 227.13,705.19 227.26,705.19 227.26,705.39 C 227.26,705.5 227.16,705.5 227,705.5 C 226.52,705.5 226.52,705.57 226.52,705.66 C 226.52,705.73 226.54,705.79 226.56,705.88 L 227.94,711.42 z"
         id="path2668"
         style="fill:#000000;stroke-width:0" /></g>    <g
       transform="matrix(1.5,0,0,-1.5,-178.24244,1118.2301)"
       id="g2746"
       xml:space="preserve"
       style="font-style:normal;font-variant:normal;font-weight:normal;font-stretch:normal;letter-spacing:normal;word-spacing:normal;text-anchor:start;fill:none;fill-opacity:1;fill-rule:evenodd;stroke:#000000;stroke-linecap:butt;stroke-linejoin:miter;stroke-miterlimit:10.43299961;stroke-dasharray:none;stroke-dashoffset:0;stroke-opacity:1"><path
         d="M 227.94,711.42 L 227.94,711.42 L 227.94,711.42 L 227.94,711.43 L 227.93,711.43 L 227.93,711.44 L 227.93,711.44 L 227.93,711.44 L 227.93,711.45 L 227.93,711.45 L 227.93,711.46 L 227.92,711.46 L 227.92,711.47 L 227.92,711.47 L 227.92,711.47 L 227.92,711.48 L 227.91,711.48 L 227.91,711.48 L 227.91,711.49 L 227.9,711.49 L 227.9,711.49 L 227.89,711.5 L 227.89,711.5 L 227.89,711.5 L 227.88,711.51 L 227.88,711.51 L 227.87,711.51 L 227.87,711.51 L 227.86,711.51 L 227.85,711.51 L 227.85,711.52 L 227.84,711.52 L 227.84,711.52 C 227.73,711.52 227.33,711.12 227.16,710.83 C 226.94,711.37 226.55,711.53 226.23,711.53 L 226.23,711.31 C 226.88,711.31 227.02,710.5 227.02,710.43 C 227.02,710.37 226.47,708.19 226.44,708.15 C 226.29,707.87 225.73,707.23 225.18,707.23 L 225.18,707.23 C 224.58,707.23 224.54,708 224.54,708.17 C 224.54,708.65 224.83,709.73 225,710.15 C 225.3,710.89 225.82,711.31 226.23,711.31 L 226.23,711.53 C 225.06,711.53 223.83,710.05 223.83,708.61 C 223.83,707.63 224.42,707.01 225.15,707.01 C 225.57,707.01 225.96,707.25 226.32,707.61 C 226.23,707.26 225.9,705.92 225.87,705.83 C 225.79,705.55 225.71,705.51 225.16,705.5 C 225.03,705.5 224.93,705.5 224.93,705.3 C 224.93,705.29 224.93,705.19 225.06,705.19 C 225.38,705.19 225.72,705.22 226.05,705.22 C 226.39,705.22 226.75,705.19 227.08,705.19 C 227.13,705.19 227.26,705.19 227.26,705.39 C 227.26,705.5 227.16,705.5 227,705.5 C 226.52,705.5 226.52,705.57 226.52,705.66 C 226.52,705.73 226.54,705.79 226.56,705.88 L 227.94,711.42 z"
         id="path2748"
         style="fill:#000000;stroke-width:0" /></g>    <path
       d="M 162.3798,64.536468 C 162.3798,65.527163 161.57575,66.331206 160.58506,66.331206 C 159.59436,66.331206 158.79032,65.527163 158.79032,64.536468 C 158.79032,63.545773 159.59436,62.74173 160.58506,62.74173 C 161.57575,62.74173 162.3798,63.545773 162.3798,64.536468 z"
       id="path2802" />
    <g
       id="g11631">
      <path
         d="M 246.21875,63.78125 L 246.21875,65.28125 C 246.21875,65.28125 261.53125,65.28125 261.53125,65.28125 L 261.53125,63.78125 C 261.53125,63.78125 246.21875,63.78125 246.21875,63.78125 z"
         id="use3622"
         style="fill:#000000;stroke:none" />
      <path
         d="M 261.05092,64.536468 L 258.9241,66.663293 L 266.36798,64.536468 L 258.9241,62.409643 L 261.05092,64.536468 z"
         id="path11635"
         style="fill-rule:evenodd;stroke:#000000;stroke-width:0.42536497pt;marker-start:none" />
    </g>
    <use
       transform="matrix(-1,0,0,1,401.1303,0)"
       id="use11639"
       x="0"
       y="0"
       width="120"
       height="175"
       xlink:href="#g11631" />
    <use
       transform="translate(79.960183,0)"
       id="use11750"
       x="0"
       y="0"
       width="120"
       height="175"
       xlink:href="#path2802" />
  </g>
  <g
     transform="translate(102.21978,0.7769369)"
     id="g2516">
    <path
       d="M 242.37737,47.78245 C 242.37737,47.78245 237.07154,47.78245 237.07154,47.78245 C 237.07154,53.97454 234.75684,59 231.22296,59 C 227.68907,59 224.78247,53.97454 224.78247,47.78245 C 224.78247,44.14305 225.84282,38.754762 227.46929,38.746422 C 229.09576,38.738132 230.16346,44.07423 230.16346,47.78245 C 230.16346,53.97454 226.66494,59 223.13105,59 C 219.59716,59 216.09864,53.97454 216.09864,47.78245 C 216.09864,44.14305 217.15899,38.754762 218.78546,38.746422 C 220.41193,38.738132 221.47963,44.07423 221.47963,47.78245 C 221.47963,53.97454 217.98111,59 214.44722,59 C 210.91333,59 207.41482,53.97454 207.41482,47.78245 C 207.41482,44.14305 208.47517,38.754762 210.10164,38.746422 C 211.72811,38.738132 212.79581,44.07423 212.79581,47.78245 C 212.79581,53.97454 209.29728,59 205.76339,59 C 202.2295,59 198.73099,53.97454 198.73099,47.78245 C 198.73099,44.14305 199.79134,38.754762 201.41781,38.746422 C 203.04428,38.738132 204.11198,44.07423 204.11198,47.78245 C 204.11198,53.97454 200.61346,59 197.07957,59 C 193.54568,59 190.04716,53.97454 190.04716,47.78245 C 190.04716,44.14305 191.10751,38.754762 192.73398,38.746422 C 194.36045,38.738132 195.42815,44.07423 195.42815,47.78245 C 195.42815,53.97454 191.92963,59 188.39574,59 C 184.86186,59 181.36335,53.97454 181.36335,47.78245 C 181.36335,44.14305 182.4237,38.754762 184.05017,38.746422 C 185.67664,38.738132 186.74434,44.07423 186.74434,47.78245 C 186.74434,53.97454 183.24581,59 179.71191,59 C 176.17802,59 172.67951,53.97454 172.67951,47.78245 C 172.67951,44.14305 173.73986,38.754762 175.36633,38.746422 C 176.9928,38.738132 178.0605,44.07423 178.0605,47.78245 C 178.0605,53.97454 174.47836,59 170.8489,59 C 167.21944,59 163.63731,53.97454 163.63731,47.78245 C 163.63731,44.14305 164.69766,38.754762 166.32413,38.746422 C 167.9506,38.738132 169.0183,44.07423 169.0183,47.78245 C 169.0183,53.97454 165.51978,59 161.98589,59 C 158.452,59 154.95348,53.97454 154.95348,47.78245 C 154.95348,44.14305 156.01383,38.754762 157.6403,38.746422 C 159.26677,38.738132 160.33447,44.07423 160.33447,47.78245 C 160.33447,53.97454 156.83595,59 153.30206,59 C 149.76817,59 146.26966,53.97454 146.26966,47.78245 C 146.26966,44.14305 147.33001,38.754762 148.95648,38.746422 C 150.58295,38.738132 151.65065,44.07423 151.65065,47.78245 C 151.65065,53.97454 148.15212,59 144.61823,59 C 141.08434,59 137.58583,53.97454 137.58583,47.78245 C 137.58583,44.14305 138.64618,38.754762 140.27265,38.746422 C 141.89912,38.738132 142.96682,44.07423 142.96682,47.78245 C 142.96682,53.97454 139.4683,59 135.93441,59 C 132.40052,59 128.902,53.97454 128.902,47.78245 C 128.902,44.14305 129.96235,38.754762 131.58882,38.746422 C 133.21529,38.738132 134.28299,44.07423 134.28299,47.78245 C 134.28299,53.97454 130.78447,59 127.25058,59 C 123.7167,59 120.21819,53.97454 120.21819,47.78245 C 120.21819,44.14305 121.27854,38.754762 122.90501,38.746422 C 124.53148,38.738132 125.59918,44.07423 125.59918,47.78245 C 125.59918,53.97454 122.10065,59 118.56675,59 C 115.03286,59 111.53435,53.97454 111.53435,47.78245 C 111.53435,44.14305 112.5947,38.754762 114.22117,38.746422 C 115.84764,38.738132 116.91534,44.07423 116.91534,47.78245 C 116.91534,53.97454 114.00873,59 110.47484,59 C 106.94095,59 104.62626,53.97454 104.62626,47.78245 C 104.62626,47.78245 99.313077,47.78245 99.313077,47.78245"
       id="path11671"
       style="fill:none;stroke:#000000;stroke-width:1.5;stroke-linecap:butt" />
    <use
       transform="translate(-60.460144,-16.754)"
       id="use11727"
       x="0"
       y="0"
       width="120"
       height="175"
       xlink:href="#g2746" />
    <use
       transform="translate(-60.460144,-16.754018)"
       id="use11730"
       x="0"
       y="0"
       width="120"
       height="175"
       xlink:href="#use11639" />
    <use
       transform="translate(1.027645,-16.754)"
       id="use11733"
       x="0"
       y="0"
       width="120"
       height="175"
       xlink:href="#g2664" />
    <use
       transform="translate(1.0276449,-16.754018)"
       id="use11736"
       x="0"
       y="0"
       width="120"
       height="175"
       xlink:href="#g11631" />
    <use
       transform="translate(-60.460145,-16.754018)"
       id="use11752"
       x="0"
       y="0"
       width="120"
       height="175"
       xlink:href="#path2802" />
    <use
       transform="translate(1.0276444,-16.754018)"
       id="use11755"
       x="0"
       y="0"
       width="120"
       height="175"
       xlink:href="#use11750" />
  </g>
  <use
     transform="translate(-70,63.507176)"
     id="use2520"
     x="0"
     y="0"
     width="120"
     height="175"
     xlink:href="#g2486" />
  <use
     transform="translate(70,63.507176)"
     id="use2522"
     x="0"
     y="0"
     width="120"
     height="175"
     xlink:href="#g2486" />
  <use
     transform="translate(-138,63.507176)"
     id="use2524"
     x="0"
     y="0"
     width="120"
     height="175"
     xlink:href="#g2516" />
  <use
     transform="translate(138,63.507176)"
     id="use2526"
     x="0"
     y="0"
     width="120"
     height="175"
     xlink:href="#g2516" />
  <use
     transform="translate(-206,127.01435)"
     id="use2528"
     x="0"
     y="0"
     width="120"
     height="175"
     xlink:href="#g2486" />
  <use
     transform="translate(-70,127.01435)"
     id="use2530"
     x="0"
     y="0"
     width="120"
     height="175"
     xlink:href="#g2486" />
  <use
     transform="translate(70,127.01435)"
     id="use2532"
     x="0"
     y="0"
     width="120"
     height="175"
     xlink:href="#g2486" />
  <use
     transform="translate(206,127.01435)"
     id="use2534"
     x="0"
     y="0"
     width="120"
     height="175"
     xlink:href="#g2486" />
  <path
     d="M 67.068681,159.75491 C 67.068681,159.75491 67.068681,225.06809 67.068681,225.06809"
     id="path11818"
     style="fill:none;fill-opacity:0.75;fill-rule:evenodd;stroke:#000000;stroke-width:1.5;stroke-linecap:butt;stroke-linejoin:miter;stroke-miterlimit:4;stroke-dasharray:6, 6;stroke-dashoffset:0;stroke-opacity:1" />
  <path
     d="M 124.29827,224.98952 A 133.75575,48.638454 0 1 1 -143.21323,224.98952 A 133.75575,48.638454 0 1 1 124.29827,224.98952 z"
     transform="matrix(2.0268887,0,0,0.6241392,292.23794,108.09168)"
     id="path11842"
     style="fill:none;fill-opacity:1;fill-rule:evenodd;stroke:#000000;stroke-width:0.70481473;stroke-linecap:square;stroke-linejoin:miter;marker:none;marker-start:none;marker-mid:none;marker-end:none;stroke-miterlimit:4;stroke-dasharray:none;stroke-dashoffset:0;stroke-opacity:1;visibility:visible;display:inline;overflow:visible;enable-background:accumulate" />
  <use
     transform="translate(412,0)"
     id="use11848"
     x="0"
     y="0"
     width="120"
     height="175"
     xlink:href="#path11818" />
  <path
     d="M 343.06868,159.75491 C 343.06868,159.75491 343.06868,217.06809 343.06868,217.06809"
     id="use11850"
     style="fill:none;fill-opacity:0.75;fill-rule:evenodd;stroke:#000000;stroke-width:1.5;stroke-linecap:butt;stroke-linejoin:miter;stroke-miterlimit:4;stroke-dasharray:6, 6;stroke-dashoffset:0;stroke-opacity:1" />
  <use
     transform="translate(-140,0)"
     id="use11854"
     x="0"
     y="0"
     width="120"
     height="175"
     xlink:href="#use11850" />
  <text
     x="173.71321"
     y="262.58875"
     id="text11856"
     xml:space="preserve"
     style="font-size:40px;font-style:normal;font-variant:normal;font-weight:normal;font-stretch:normal;text-align:start;line-height:125%;writing-mode:lr-tb;text-anchor:start;fill:#000000;fill-opacity:1;stroke:none;stroke-width:1px;stroke-linecap:butt;stroke-linejoin:miter;stroke-opacity:1;font-family:Arial;-inkscape-font-specification:Arial"><tspan
       x="173.71321"
       y="262.58875"
       id="tspan11858">Hadron Jet</tspan></text>
</svg>
